<?xml version="1.0" encoding="utf-8"?>
<!-- Generator: Adobe Illustrator 19.2.1, SVG Export Plug-In . SVG Version: 6.00 Build 0)  -->
<svg version="1.1" id="Capa_1" xmlns="http://www.w3.org/2000/svg" xmlns:xlink="http://www.w3.org/1999/xlink" x="0px" y="0px"
	 viewBox="0 0 512 512" style="enable-background:new 0 0 512 512;" xml:space="preserve">
<style type="text/css">
	.st0{fill:#239999;}
	.st1{fill:#59B3B1;}
	.st2{fill:#213644;}
	.st3{fill:#FCC470;}
	.st4{fill:#424C59;}
	.st5{fill:#D8401D;}
	.st6{fill:#F9572B;}
</style>
<g>
	<rect x="185.5" y="371.4" class="st0" width="141.1" height="79.9"/>
	<path class="st1" d="M443.1,35.3h15.7c29.4,0,53.2,23.8,53.2,53.2v246.3c0,29.4-23.8,53.2-53.2,53.2H53.2C23.8,388,0,364.2,0,334.8
		V88.5c0-29.4,23.8-53.2,53.2-53.2h12.7"/>
	<path class="st2" d="M65.9,75.4H53.2c-7.2,0-13.1,5.9-13.1,13.1v246.3c0,7.2,5.9,13.1,13.1,13.1h41.6h319.3h44.6
		c7.2,0,13.1-5.9,13.1-13.1V88.5c0-7.2-5.9-13.1-13.1-13.1h-15.7H65.9z"/>
	<path class="st1" d="M372.5,476.7h-233l0,0c0-22.8,18.5-41.4,41.3-41.4h150.3C354,435.4,372.5,453.9,372.5,476.7L372.5,476.7z"/>
	<path class="st3" d="M471.9,268.5v66.3c0,5.1-2.9,9.5-7.1,11.7L354.4,236.1c-22.9,7.5-49,2.2-67.2-16
		c-13.3-13.3-19.7-30.9-19.3-48.3l35.7,17.8c4.1,2.1,8.5,3,12.8,3c10.6,0,20.7-5.8,25.8-15.9c7.1-14.2,1.3-31.5-12.9-38.6
		l-34.9-17.4c25.8-19.2,62.4-17.1,85.8,6.3c17.9,17.9,23.3,43.6,16.3,66.2L471.9,268.5z"/>
	<g>
		<polygon class="st4" points="96.7,130.3 70.2,156.8 105.4,218.5 143.6,222.8 162.7,203.7 158.4,165.5 		"/>
		
			<rect x="179.5" y="196.7" transform="matrix(0.7071 -0.7071 0.7071 0.7071 -121.8257 210.0124)" class="st4" width="26.1" height="110.8"/>
	</g>
	<path class="st5" d="M338.7,347.8H238l-13.3-13.3c-10-10-10-26.2,0-36.2l14.1-14.1c0.6-0.6,1.2-1.2,1.9-1.7
		c10.1-8.3,24.9-7.7,34.3,1.7L338.7,347.8z"/>
	<path class="st6" d="M338.7,347.8h-65.2l-31.1-31.1c-9.4-9.4-10-24.3-1.7-34.3c10.1-8.3,24.9-7.7,34.3,1.7L338.7,347.8z"/>
</g>
</svg>
