<?xml version="1.0" encoding="iso-8859-1"?>
<!-- Generator: Adobe Illustrator 21.0.0, SVG Export Plug-In . SVG Version: 6.00 Build 0)  -->
<svg version="1.1" id="Capa_1" xmlns="http://www.w3.org/2000/svg" xmlns:xlink="http://www.w3.org/1999/xlink" x="0px" y="0px"
	 viewBox="0 0 512.001 512.001" style="enable-background:new 0 0 512.001 512.001;" xml:space="preserve">
<path style="fill:#B4D2D7;" d="M413.245,511.985c-34.789,0-63.091-28.302-63.091-63.091v-49.831
	c0-18.248-14.846-33.093-33.094-33.093c-18.247,0-33.093,14.845-33.093,33.093v49.831c0,34.789-28.302,63.091-63.091,63.091
	s-63.091-28.302-63.091-63.091V329.305h29.998v119.589c0,18.248,14.845,33.093,33.093,33.093c18.248,0,33.093-14.845,33.093-33.093
	v-49.831c0-34.789,28.302-63.091,63.091-63.091s63.092,28.302,63.092,63.091v49.831c0,18.248,14.846,33.093,33.093,33.093
	c18.247,0,33.093-14.845,33.093-33.093v-131.23h29.998v131.23C476.336,483.682,448.033,511.985,413.245,511.985z"/>
<path style="fill:#424EDE;" d="M461.337,231.336c-27.936,0-50.663,22.728-50.663,50.664c0,27.936,22.728,50.664,50.663,50.664
	c27.935,0,50.664-22.728,50.664-50.664C512.001,254.063,489.272,231.336,461.337,231.336z"/>
<path style="fill:#87A0AF;" d="M172.784,344.304c-55.093,0-103.822-35.113-121.257-87.375L3.278,112.299
	c-6.434-19.285-3.307-39.804,8.577-56.297S42.216,30.05,62.545,30.05h50.975v29.998H62.545c-10.568,0-20.173,4.917-26.351,13.491
	c-6.178,8.573-7.804,19.241-4.459,29.266l48.249,144.631c13.343,39.997,50.637,66.87,92.8,66.87s79.457-26.873,92.799-66.87
	l48.249-144.631c3.345-10.024,1.719-20.692-4.46-29.265c-6.178-8.574-15.782-13.491-26.35-13.491h-50.972V30.051h50.972
	c20.329,0,38.804,9.458,50.688,25.951c11.884,16.493,15.011,37.013,8.578,56.297L294.04,256.93
	C276.607,309.191,227.877,344.304,172.784,344.304z"/>
<g>
	<rect x="98.525" y="0.016" style="fill:#B4D2D7;" width="29.998" height="90.065"/>
	<rect x="217.047" y="0.016" style="fill:#B4D2D7;" width="29.998" height="90.065"/>
</g>
<g>
</g>
<g>
</g>
<g>
</g>
<g>
</g>
<g>
</g>
<g>
</g>
<g>
</g>
<g>
</g>
<g>
</g>
<g>
</g>
<g>
</g>
<g>
</g>
<g>
</g>
<g>
</g>
<g>
</g>
</svg>
